<svg width="35" height="35" viewBox="0 0 47 47" fill="none" xmlns="http://www.w3.org/2000/svg">
<path d="M21.056 27.401C22.795 26.414 24.44 25.944 26.273 25.944C26.79 25.944 27.307 25.991 27.777 26.038C28.012 26.085 28.059 25.991 27.824 25.85C26.931 25.333 25.944 24.863 24.91 24.44C22.889 23.594 22.607 22.842 22.607 21.996C22.607 21.15 23.171 20.398 23.829 19.787C25.004 18.706 25.662 17.249 25.662 15.51C25.662 12.267 23.641 9.494 20.069 9.494C16.497 9.494 14.476 12.267 14.476 15.51C14.476 17.249 15.134 18.753 16.309 19.787C16.967 20.398 17.531 21.197 17.531 21.996C17.531 22.795 17.202 23.594 15.228 24.44C12.314 25.662 9.54102 27.072 9.49402 29.704C9.49402 31.443 10.81 32.994 12.455 32.994H19.129C19.646 32.994 20.069 32.571 20.069 32.054V28.999C20.116 28.341 20.445 27.73 21.056 27.401Z" fill="white"/>
<path d="M36.331 30.174C31.913 31.537 28.435 27.354 23.594 29.328C23.218 29.469 23.03 29.798 23.03 30.221V35.25C23.03 35.908 23.594 36.331 24.205 36.143C28.999 34.686 32.477 38.869 36.989 36.989C37.318 36.848 37.6 36.519 37.6 36.096V31.067C37.6 30.456 36.942 29.986 36.331 30.174ZM30.456 34.874C29.422 34.874 28.576 34.028 28.576 32.994C28.576 31.96 29.422 31.114 30.456 31.114C31.49 31.114 32.336 31.96 32.336 32.994C32.336 34.028 31.49 34.874 30.456 34.874Z" fill="white"/>
</svg>
