<svg width="25" height="25" viewBox="0 0 31 31" fill="none" xmlns="http://www.w3.org/2000/svg">
<g clip-path="url(#clip0_14_413)">
<path d="M29.45 0C28.5937 0 27.9 0.693746 27.9 1.55V7.23335H26.35V3.2395C26.35 2.59147 25.8252 2.06665 25.1771 2.06665H21.3228C20.6748 2.06665 20.1499 2.59141 20.1499 3.2395V7.23335H18.5999V3.2395C18.5999 2.59147 18.0752 2.06665 17.4271 2.06665H13.5727C12.9247 2.06665 12.3999 2.59141 12.3999 3.2395V7.23335H10.8499V3.2395C10.8499 2.59147 10.3251 2.06665 9.67702 2.06665H5.82285C5.17482 2.06665 4.65 2.59141 4.65 3.2395V7.23335H3.1V1.55C3.1 0.693746 2.40625 0 1.55 0C0.693746 0 0 0.693746 0 1.55V31H3.1V27.9H4.65H10.85H12.4H18.6H20.15H26.35H27.9V31H31V1.55C31 0.693746 30.3063 0 29.45 0ZM21.1834 3.2395C21.1834 3.16212 21.2455 3.1 21.3229 3.1H25.1772C25.2546 3.1 25.3167 3.16212 25.3167 3.2395V7.23335H21.1834V3.2395ZM13.4334 3.2395C13.4334 3.16212 13.4955 3.1 13.5729 3.1H17.4272C17.5046 3.1 17.5667 3.16212 17.5667 3.2395V7.23335H13.4334V3.2395ZM5.68335 3.2395C5.68335 3.16212 5.74547 3.1 5.82285 3.1H9.67721C9.75459 3.1 9.81671 3.16212 9.81671 3.2395V7.23335H5.68335V3.2395ZM4.65 8.26665H10.85H12.4H18.6H20.15H26.35H27.9V17.05H26.35V13.0561C26.35 12.4081 25.8252 11.8833 25.1771 11.8833H21.3228C20.6748 11.8833 20.1499 12.4081 20.1499 13.0561V17.05H18.5999V13.0561C18.5999 12.4081 18.0752 11.8833 17.4271 11.8833H13.5727C12.9247 11.8833 12.3999 12.4081 12.3999 13.0561V17.05H10.8499V13.0561C10.8499 12.4081 10.3251 11.8833 9.67702 11.8833H5.82285C5.17482 11.8833 4.65 12.4081 4.65 13.0561V17.05H3.1V8.26665H4.65ZM25.3166 17.05H21.1833V13.0561C21.1833 12.9788 21.2454 12.9166 21.3228 12.9166H25.1771C25.2545 12.9166 25.3166 12.9788 25.3166 13.0561V17.05ZM17.5666 17.05H13.4333V13.0561C13.4333 12.9788 13.4954 12.9166 13.5728 12.9166H17.4271C17.5045 12.9166 17.5666 12.9788 17.5666 13.0561V17.05ZM9.81665 17.05H5.68335V13.0561C5.68335 12.9788 5.74547 12.9166 5.82285 12.9166H9.67721C9.75459 12.9166 9.81671 12.9788 9.81671 13.0561V17.05H9.81665ZM2.06665 29.9666H1.03335V1.55C1.03335 1.26446 1.26446 1.03335 1.55 1.03335C1.8356 1.03335 2.06665 1.26446 2.06665 1.55V29.9666ZM5.68335 26.8666V22.8728C5.68335 22.7954 5.74547 22.7333 5.82285 22.7333H9.67721C9.75459 22.7333 9.81671 22.7954 9.81671 22.8728V26.8666H5.68335ZM13.4334 26.8666V22.8728C13.4334 22.7954 13.4955 22.7333 13.5729 22.7333H17.4272C17.5046 22.7333 17.5667 22.7954 17.5667 22.8728V26.8666H13.4334ZM21.1834 26.8666V22.8728C21.1834 22.7954 21.2455 22.7333 21.3229 22.7333H25.1772C25.2546 22.7333 25.3167 22.7954 25.3167 22.8728V26.8666H21.1834ZM26.35 26.8666V22.8728C26.35 22.2248 25.8252 21.6999 25.1771 21.6999H21.3228C20.6748 21.6999 20.1499 22.2247 20.1499 22.8728V26.8666H18.5999V22.8728C18.5999 22.2248 18.0752 21.6999 17.4271 21.6999H13.5727C12.9247 21.6999 12.3999 22.2247 12.3999 22.8728V26.8666H10.8499V22.8728C10.8499 22.2248 10.3251 21.6999 9.67702 21.6999H5.82285C5.17482 21.6999 4.65 22.2247 4.65 22.8728V26.8666H3.1V18.0834H4.65H10.85H12.4H18.6H20.15H26.35H27.9V26.8667H26.35V26.8666ZM29.9666 29.9666H28.9333V1.55C28.9333 1.26446 29.1644 1.03335 29.4499 1.03335C29.7355 1.03335 29.9666 1.26446 29.9666 1.55V29.9666H29.9666Z" fill="white"/>
</g>
<defs>
<clipPath id="clip0_14_413">
<rect width="31" height="31" fill="white"/>
</clipPath>
</defs>
</svg>
