<svg width="30" height="30" viewBox="0 0 45 45" fill="none" xmlns="http://www.w3.org/2000/svg">
<path d="M12.136 14.7347C12.1388 14.7375 12.1416 14.7417 12.143 14.7445C12.1444 14.7459 12.1444 14.7473 12.1458 14.7488C12.143 14.7431 12.1402 14.7389 12.136 14.7347ZM17.0803 19.4498C17.1282 19.7255 17.1324 19.8675 17.0958 20.1403C17.0325 20.5917 16.5755 20.9573 16.1522 21.0628C15.7374 21.1655 15.3197 21.1627 14.8992 21.1359C14.6335 21.1205 14.3719 21.0839 14.116 21.015C14.0288 20.9925 13.9416 20.9742 13.8558 20.9545C13.853 21.4945 13.8502 22.0345 13.846 22.5745C13.8333 24.5503 13.9374 26.5233 14.1061 28.4878C14.1849 29.4356 14.2003 30.3877 14.2158 31.3383C14.2242 31.8291 14.2214 32.3212 14.2214 32.812C14.2214 33.0202 14.2186 33.2269 14.2186 33.4378C14.2172 33.5756 14.2214 33.7233 14.2186 33.8695C14.4197 34.013 14.5758 34.2225 14.6475 34.4827C14.7291 34.7794 14.6869 35.1 14.5322 35.3658C14.3986 35.595 14.1244 35.8537 13.8488 35.8917C13.7757 35.9016 13.7039 35.9128 13.6308 35.9227C13.6758 35.917 13.7208 35.9114 13.7644 35.9058C13.6435 35.9227 13.5211 35.9381 13.4002 35.9536C13.1794 35.9845 12.96 36.0155 12.7378 36.0211C12.5508 36.0267 12.3652 36.0239 12.181 36.0394C11.8027 36.0661 11.4244 36.0633 11.0489 36.1097C10.066 36.2306 9.06893 36.2362 8.08034 36.2545C7.76815 36.2602 7.48268 36.1252 7.27596 35.9142C6.84425 35.8003 6.49831 35.4178 6.50956 34.9538C6.52221 34.4461 6.52221 33.9398 6.54612 33.4322C6.56721 32.9667 6.55456 32.497 6.53487 32.0316C6.51378 31.5802 6.46456 31.1302 6.44768 30.6759C6.4294 30.1978 6.41815 29.7197 6.39565 29.2416C6.34643 28.2333 6.30706 27.2222 6.30706 26.2125C6.30425 25.2197 6.30987 24.2297 6.2944 23.2369C6.28034 22.3678 6.30284 21.5016 6.33378 20.6325C6.2705 20.6367 6.20721 20.6367 6.14393 20.6423C5.78393 20.707 5.43237 20.7928 5.06393 20.7689C4.81503 20.7506 4.5619 20.7478 4.313 20.7239C3.81659 20.6733 3.23018 20.5509 2.97846 20.0573C2.82378 19.7578 2.76893 19.4555 2.84768 19.1222C2.88706 18.9534 2.96581 18.7959 3.04175 18.6413C3.20768 18.308 3.38909 17.9761 3.56768 17.6513C3.79409 17.2336 4.05846 16.8455 4.3369 16.4644C4.62378 16.0763 4.89378 15.6769 5.1694 15.2803C5.79659 14.3761 6.43081 13.4761 7.10581 12.6056C7.42362 12.1978 7.75409 11.8041 8.08034 11.4047C8.46143 10.9406 8.84253 10.4808 9.25737 10.0477C9.45284 9.84375 9.72003 9.74391 9.99003 9.74391C10.2277 9.74391 10.4569 9.83531 10.6467 9.98578C10.7199 9.97031 10.793 9.95625 10.8661 9.95625C11.2486 9.95625 11.6171 10.163 11.8407 10.5061C12.4636 11.4652 13.0964 12.4186 13.7503 13.3594C14.2861 14.1258 14.8669 14.8669 15.3324 15.6811C15.563 16.0861 15.7599 16.508 15.9708 16.9214C16.1705 17.3081 16.3828 17.6906 16.5755 18.083C16.7541 18.4514 16.92 18.8297 17.0297 19.2234C17.0466 19.298 17.0677 19.3739 17.0803 19.4498ZM14.7403 18.9605C14.49 18.4697 14.2102 17.9916 13.9542 17.5064C13.7574 17.1408 13.5464 16.7864 13.3285 16.432C13.1007 16.0622 12.8757 15.6952 12.6099 15.352C12.5592 15.2873 12.51 15.2213 12.458 15.1552C12.4946 15.2016 12.5311 15.2494 12.5677 15.2958C12.5874 15.3211 12.6071 15.3464 12.6267 15.3731L12.6282 15.3745C12.6127 15.3534 12.5958 15.3323 12.5803 15.3113C12.5958 15.3309 12.6099 15.3492 12.6253 15.3689C12.6071 15.345 12.5888 15.3211 12.5705 15.2972C12.5578 15.2803 12.5438 15.262 12.5311 15.2452C12.541 15.2578 12.5508 15.2705 12.5592 15.2831C12.4847 15.1875 12.4102 15.0905 12.3357 14.9934C12.3511 15.0131 12.3652 15.0314 12.3807 15.0511C12.3624 15.0272 12.3441 15.0047 12.3258 14.9808C12.2892 14.933 12.2513 14.8838 12.2147 14.8359C12.2414 14.8711 12.2667 14.9048 12.2935 14.94C12.2428 14.8753 12.1936 14.8106 12.143 14.7459C11.4792 13.8755 10.8521 12.9811 10.2375 12.0755C9.6019 12.7617 8.99018 13.4719 8.41221 14.2059C7.70206 15.1509 7.04675 16.1325 6.39143 17.1141C6.07081 17.595 5.70518 18.0394 5.4169 18.5372C5.38456 18.5934 5.35221 18.6511 5.31987 18.7073C5.65456 18.6441 5.98784 18.5794 6.32675 18.533C6.26206 18.5414 6.19878 18.5484 6.13409 18.5583C6.35487 18.5288 6.57284 18.4922 6.79362 18.4683C7.0594 18.4373 7.36878 18.5991 7.55018 18.7805C7.60362 18.8339 7.63315 18.9028 7.67393 18.9661C8.12956 19.087 8.51909 19.492 8.49096 19.9842C8.42206 21.1317 8.32784 22.275 8.36018 23.4225C8.38409 24.4125 8.3869 25.4025 8.39393 26.3939C8.40237 27.405 8.43612 28.4217 8.47831 29.43C8.4994 29.8927 8.50221 30.3553 8.51768 30.8138C8.53315 31.2792 8.56831 31.7405 8.588 32.2059C8.61471 32.7966 8.59081 33.3872 8.5669 33.9778C8.6794 33.9792 8.7919 33.9792 8.9044 33.9806C9.60612 33.9891 10.3121 33.9961 11.0082 33.9145C11.4089 33.8667 11.8111 33.8386 12.2133 33.8077C12.2189 33.7753 12.2161 33.7416 12.226 33.7106C12.2316 33.2733 12.2217 32.8345 12.2189 32.3986C12.2161 31.4086 12.2091 30.4228 12.15 29.4356C12.0952 28.5398 12.0417 27.6412 12.0024 26.7455C11.9602 25.7105 11.9335 24.6755 11.9124 23.6405C11.8885 22.5267 11.8435 21.413 11.8392 20.2992C11.8392 20.2852 11.8463 20.2725 11.8477 20.2584C11.6016 19.9181 11.565 19.44 11.783 19.0659C12.0882 18.5428 12.7477 18.3909 13.2666 18.675C13.2708 18.6778 13.2736 18.6792 13.2778 18.682C13.3566 18.7031 13.4339 18.7186 13.5127 18.7327C13.808 18.7622 14.1061 18.7805 14.393 18.862C14.5125 18.8944 14.625 18.9295 14.7403 18.9605ZM12.5803 15.3113C12.5775 15.307 12.5733 15.3014 12.5705 15.2972C12.5663 15.293 12.5635 15.2873 12.5592 15.2831C12.5621 15.2873 12.5649 15.2916 12.5677 15.2958C12.5719 15.3 12.5761 15.3056 12.5803 15.3113ZM12.3272 14.9794C12.316 14.9653 12.3061 14.9513 12.2949 14.9386C12.3089 14.9569 12.323 14.9752 12.3371 14.992C12.3328 14.9878 12.33 14.9836 12.3272 14.9794ZM19.9885 13.3509C19.9027 12.7786 19.8436 12.247 19.973 11.6677C20.0996 11.1052 20.2205 10.5455 20.3963 9.99703C20.4919 9.70172 20.6916 9.46406 20.9433 9.32203C21.1233 8.98875 21.4678 8.7511 21.8686 8.74969C22.036 8.74828 22.2047 8.74828 22.3721 8.74828C23.5069 8.74828 24.6403 8.76938 25.7752 8.7736C26.0452 8.77641 26.3166 8.77078 26.5866 8.76516C26.8805 8.75953 27.1772 8.7525 27.4739 8.75531C28.0702 8.75813 28.6664 8.80031 29.2627 8.80031C29.5496 8.80031 29.8125 8.91985 30.0052 9.10969C30.1135 9.08016 30.2246 9.06047 30.3399 9.06047C30.4299 9.06047 30.5213 9.07031 30.6127 9.0886C31.0641 9.18 31.4564 9.41766 31.6969 9.82125C31.891 10.1503 31.891 10.5173 31.8474 10.8802C31.8024 11.2613 31.8052 11.655 31.8178 12.0389C31.8305 12.3863 31.8263 12.7322 31.8263 13.0795C31.8263 13.3791 31.8108 13.6659 31.7714 13.9627C31.7447 14.1356 31.6871 14.3198 31.5957 14.4717C31.4874 14.6559 31.2961 14.8978 31.0964 14.9864C30.8264 15.1073 30.5874 15.1861 30.2878 15.1833C30.2091 15.1833 30.1275 15.1805 30.0488 15.1805C29.873 15.1805 29.6972 15.1805 29.5214 15.1748C29.1277 15.1594 28.7311 15.1538 28.3374 15.1411C28.0139 15.1313 27.6933 15.1327 27.3727 15.1355C27.1885 15.1383 27.0042 15.1411 26.8214 15.1383C26.2955 15.1355 25.771 15.1327 25.2422 15.1383C24.7149 15.1439 24.1833 15.1411 23.6532 15.1495C23.1539 15.1594 22.6603 15.2044 22.1639 15.2283C21.683 15.2494 21.1627 15.1594 20.7689 14.8655C20.4272 14.6138 20.1544 14.2875 20.0644 13.86C20.0264 13.6913 20.0082 13.5211 19.9885 13.3509ZM25.7724 10.8113C24.6685 10.8028 23.5674 10.8323 22.4635 10.8548C22.3439 11.2289 22.23 11.6016 22.1569 11.9883C22.1457 12.1613 22.1513 12.337 22.1653 12.51C22.1892 12.6267 22.2188 12.742 22.2413 12.8573C22.2483 12.8911 22.2539 12.9263 22.261 12.96C22.4086 12.9642 22.5563 12.9628 22.7039 12.96C22.8122 12.96 22.9163 12.9572 23.0246 12.9572C23.4028 12.9572 23.7783 12.9572 24.1566 12.9544C24.511 12.9544 24.8653 12.9572 25.2197 12.96C25.6402 12.9656 26.0607 12.9713 26.4811 12.9628C27.2377 12.9544 27.9942 12.9544 28.7508 12.9473C29.0377 12.9445 29.3203 12.9558 29.6072 12.9628C29.6241 12.9628 29.6424 12.9642 29.6592 12.9642C29.6621 12.6548 29.648 12.3455 29.6269 12.0375C29.6058 11.7619 29.5875 11.4863 29.5721 11.2106C29.5678 11.1389 29.5678 11.0672 29.5692 10.9955C29.5313 10.9603 29.5017 10.9181 29.468 10.8788C29.3991 10.8914 29.3344 10.9195 29.2613 10.9139C28.6439 10.8633 28.021 10.8591 27.4008 10.8436C26.858 10.8295 26.3166 10.8169 25.7724 10.8113ZM20.0644 23.1652C20.0222 23.0569 19.9828 22.9556 19.9589 22.8445C19.8717 22.4719 19.8408 22.0669 19.8507 21.683C19.8605 21.3159 19.8957 20.9475 19.9055 20.5777C19.9153 20.108 19.89 19.6397 19.89 19.17C19.8886 18.9127 19.9927 18.6848 20.1403 18.4922C20.2782 18.052 20.6775 17.7314 21.1585 17.723C21.6942 17.7117 22.23 17.7047 22.7658 17.7047C23.888 17.6991 25.0088 17.6597 26.131 17.6386C27.1688 17.6203 28.2066 17.6175 29.2416 17.557C29.6986 17.5303 30.1585 17.5444 30.6155 17.5514C31.0641 17.5598 31.5113 17.5458 31.9585 17.5388C32.2678 17.5359 32.5786 17.5261 32.8852 17.5233C32.9161 17.5233 32.9485 17.5219 32.9794 17.5219C33.113 17.5219 33.2466 17.5261 33.3816 17.5275C33.6108 17.5331 33.8386 17.5402 34.0678 17.5247C34.3688 17.5064 34.6402 17.6498 34.8357 17.8664C34.9453 17.827 35.0578 17.7933 35.1802 17.7848C35.2449 17.7806 35.311 17.7778 35.3757 17.7778C35.5219 17.7778 35.6682 17.7919 35.8074 17.8369C35.9283 17.8763 36.0492 17.9241 36.1547 18C36.4022 18.1758 36.4205 18.2025 36.6033 18.4416C36.803 18.6989 36.8367 19.0983 36.8424 19.4133C36.8466 19.8197 36.7805 20.2148 36.72 20.6156C36.6666 21.15 36.7032 21.6886 36.7003 22.2216C36.7003 22.6308 36.5907 23.0695 36.2911 23.3663C35.9832 23.6686 35.6049 23.7867 35.183 23.8078C34.9411 23.8205 34.6992 23.8191 34.4602 23.8163C34.3097 23.8163 34.1635 23.8163 34.0158 23.8163C33.0778 23.8261 32.1399 23.8191 31.2047 23.843C30.3005 23.8669 29.4005 23.895 28.4963 23.9302C27.3727 23.9695 26.2505 24.0061 25.1255 24.0595C24.5391 24.0863 23.9513 24.0961 23.3663 24.1172C23.0457 24.1298 22.7278 24.1481 22.4072 24.1664C22.1133 24.1819 21.7997 24.2241 21.5086 24.1875C21.233 24.1509 20.9391 24.1355 20.7028 23.9752C20.5932 23.902 20.4792 23.8261 20.3907 23.7277C20.198 23.5125 20.1727 23.4309 20.0644 23.1652ZM22.1696 19.8605C22.1541 20.5538 22.1358 21.2513 22.1991 21.9417C24.4322 21.9684 26.6625 21.9066 28.8957 21.8616C29.9785 21.8377 31.0599 21.8109 32.1427 21.7913C32.6757 21.7814 33.2086 21.7645 33.743 21.7603C34.0116 21.7575 34.283 21.7547 34.553 21.7434C34.5474 21.6689 34.5432 21.5944 34.5389 21.5213C34.5263 21.2372 34.5052 20.9461 34.5207 20.662C34.5375 20.3527 34.5783 20.0363 34.591 19.7227C34.5347 19.6861 34.4813 19.6439 34.4307 19.5933C34.4264 19.5891 34.425 19.5834 34.4208 19.5792C34.3083 19.62 34.1916 19.6523 34.0678 19.6523C33.7402 19.6523 33.4111 19.6945 33.0821 19.7002C32.3775 19.7184 31.6772 19.6791 30.9727 19.6664C30.0277 19.6481 29.0813 19.6327 28.1363 19.6355C27.0408 19.6383 25.9482 19.6748 24.8555 19.7508C23.9625 19.8084 23.0667 19.8366 22.1696 19.8605ZM41.9358 32.3325C41.8542 32.8978 41.3818 33.3197 40.8038 33.338C40.2835 33.3534 39.7716 33.4322 39.2513 33.4111C38.8857 33.3956 38.5214 33.3956 38.1558 33.3844C37.8591 33.3759 37.5652 33.345 37.2685 33.3239C36.4782 33.2662 35.6822 33.2691 34.8919 33.2662C34.065 33.2634 33.2367 33.2536 32.4099 33.248C31.2483 33.2423 30.0853 33.2634 28.9238 33.2775C27.7678 33.2873 26.6119 33.2986 25.456 33.3323C24.9075 33.3478 24.3633 33.3844 23.8163 33.4294C23.2889 33.4716 22.7574 33.5348 22.23 33.5447C21.6239 33.5559 20.9714 33.518 20.5116 33.075C20.1699 32.7487 19.9547 32.2425 19.9857 31.7672C20.0096 31.3706 20.1066 30.9909 20.1713 30.6056C20.1938 30.3652 20.2036 30.1261 20.2107 29.8842C20.2233 29.5116 20.2711 29.1459 20.3288 28.7803C20.3555 28.6088 20.4596 28.4442 20.5861 28.3064C20.6086 28.2361 20.6185 28.163 20.6564 28.0983C20.783 27.8831 21.0347 27.6497 21.2949 27.6103C23.3536 27.2869 25.4503 27.1814 27.5358 27.1378C28.1039 27.128 28.6707 27.1252 29.2374 27.1013C29.7703 27.0802 30.3019 27.0352 30.8349 27.0281C31.0978 27.0253 31.3622 27.0281 31.628 27.0127C31.8614 27 32.0935 26.9705 32.3241 26.9494C32.7783 26.9128 33.2438 26.8678 33.698 26.8622C34.7822 26.8467 35.865 26.8509 36.9507 26.82C37.5047 26.8045 38.0532 26.7834 38.6086 26.7806C39.0052 26.7778 39.4032 26.7553 39.7969 26.7188C39.8953 26.7005 39.9924 26.6766 40.0922 26.6555C40.268 26.6147 40.441 26.588 40.6125 26.588C40.8319 26.588 41.0457 26.633 41.2538 26.7553C41.8444 27.1027 41.9527 27.772 41.9991 28.3894C42.023 28.6988 41.9864 29.0095 41.9907 29.3189C41.9949 29.5959 42.0019 29.873 42.0286 30.1458C42.1003 30.6338 42.1805 31.1273 42.1861 31.6195C42.1903 31.8867 42.0835 32.1258 41.9358 32.3325ZM39.6268 31.1498C39.6169 30.9994 39.6113 30.8475 39.6042 30.6956C39.5888 30.3933 39.5832 30.0994 39.5888 29.7998C39.5958 29.5003 39.5986 29.2064 39.6366 28.9097C39.2443 28.9463 38.8547 28.9308 38.4624 28.9463C38.0053 28.9645 37.5483 28.9673 37.0885 28.9673C36.6103 28.9702 36.135 28.9969 35.6569 29.0039C35.1338 29.0138 34.6135 29.0137 34.0917 29.025C33.6347 29.0334 33.1833 29.0222 32.7291 29.0728C31.7067 29.1853 30.6717 29.1881 29.6452 29.1853C28.5216 29.1853 27.3994 29.243 26.2744 29.2641C25.726 29.2739 25.1789 29.2767 24.6333 29.3161C24.1425 29.3498 23.6574 29.3963 23.1722 29.4567C22.9992 29.482 22.8277 29.5116 22.6561 29.5383C22.6463 29.5973 22.6364 29.655 22.6266 29.7141C22.6013 29.9925 22.5774 30.2723 22.5436 30.5508C22.5183 30.7631 22.4832 30.9741 22.4494 31.1864C22.7461 31.192 23.0428 31.1752 23.3396 31.1639C23.8177 31.1428 24.2958 31.1147 24.7739 31.1034C25.7752 31.0767 26.775 31.0908 27.7763 31.1006C30.0825 31.1245 32.3916 31.1555 34.6978 31.1639C35.7666 31.1667 36.8382 31.1766 37.9083 31.1878C38.4807 31.192 39.0544 31.1822 39.6268 31.1498Z" fill="white"/>
</svg>
