<svg width="33" height="33" viewBox="0 0 33 33" fill="none" xmlns="http://www.w3.org/2000/svg">
<path d="M30.3958 3.47645C30.3751 3.06166 30.0726 2.70874 29.662 2.62578C29.6267 2.61891 29.5918 2.61387 29.557 2.61066L17.7077 1.4387C17.4323 1.4112 17.1637 1.50837 16.9693 1.7027L3.0021 15.6709C0.907056 17.7659 0.907056 19.0437 3.0021 21.1383L11.8653 30.0025C12.8045 30.9421 13.6286 31.5663 14.5993 31.5663C15.5701 31.5663 16.3941 30.9402 17.3314 30.002L31.301 16.0329C31.4953 15.8391 31.592 15.5682 31.565 15.2946L30.3958 3.47645ZM16.0357 28.7059C15.5953 29.1463 14.9669 29.7325 14.5993 29.7325C14.2313 29.7325 13.6024 29.1463 13.1615 28.7059L4.29826 19.8417C2.92831 18.4722 2.92831 18.337 4.29826 16.9675L17.9603 3.30549L28.6408 4.36241L29.6986 15.0434L16.0357 28.7059Z" fill="white"/>
<path d="M11.0197 12.6023L6.85348 16.7681C5.80161 17.82 5.51286 18.5332 6.71736 19.7377C6.80673 19.827 6.92407 19.872 7.0414 19.872C7.15873 19.872 7.27607 19.827 7.36544 19.7377C7.54465 19.5585 7.54465 19.2692 7.36544 19.0896C6.64723 18.3714 6.65594 18.2623 7.50157 17.4162L11.6678 13.2504C11.847 13.0712 11.847 12.7815 11.6678 12.6023C11.4886 12.4231 11.1989 12.4231 11.0197 12.6023Z" fill="white"/>
<path d="M12.3237 11.2975L11.9511 11.6705C11.7723 11.8498 11.7723 12.1399 11.952 12.3186C12.0413 12.4075 12.1582 12.4525 12.2756 12.4525C12.3929 12.4525 12.5102 12.408 12.6001 12.3177L12.9727 11.9446C13.1514 11.7654 13.1514 11.4753 12.9718 11.2965C12.7926 11.1183 12.5029 11.1173 12.3237 11.2975Z" fill="white"/>
<path d="M23.1935 5.89508C21.0985 5.89508 19.3925 7.60008 19.3925 9.69558C19.3925 11.7911 21.0985 13.4961 23.1935 13.4961C25.2895 13.4961 26.9935 11.7911 26.9935 9.69558C26.9935 7.60008 25.289 5.89508 23.1935 5.89508ZM23.1935 11.6627C22.1086 11.6627 21.2259 10.78 21.2259 9.69558C21.2259 8.61116 22.1086 7.72841 23.1935 7.72841C24.2793 7.72841 25.1602 8.61116 25.1602 9.69558C25.1602 10.78 24.2784 11.6627 23.1935 11.6627Z" fill="white"/>
</svg>
